<?xml version="1.0" encoding="UTF-8"?>
<svg id="SVGDoc" width="26" height="24" xmlns="http://www.w3.org/2000/svg" version="1.1"
     xmlns:xlink="http://www.w3.org/1999/xlink" xmlns:avocode="https://avocode.com/" viewBox="0 0 26 24">
    <defs></defs>
    <desc>Generated with Avocode.</desc>
    <g>
        <g>
            <title>Group 1570</title>
            <g>
                <title>Path 2107</title>
                <path d="M13.2853,5.44897v0h3.18262c0.24805,0 0.4502,-0.20166 0.4502,-0.45019c0,-0.24853 -0.20222,-0.45019 -0.45022,-0.45019h-0.22748c0.1864,-0.70746 0.00476,-1.31458 -0.52838,-1.6709c-0.61719,-0.41357 -1.61426,-0.39356 -2.13623,0.03955c-0.19092,0.15918 -0.2168,0.44287 -0.05762,0.63379c0.15869,0.19092 0.44189,0.2168 0.6333,0.05762c0.17969,-0.14844 0.73633,-0.19971 1.05957,0.0166c0.08789,0.05908 0.32129,0.21484 0.17773,0.69141c-0.0448,0.09119 -0.0943,0.17798 -0.14191,0.23193h-1.96161c-0.24854,0 -0.4502,0.20166 -0.4502,0.45019c0,0.24854 0.20161,0.4502 0.45021,0.4502z"
                      fill="#ff0000" fill-opacity="1"></path>
            </g>
            <g>
                <title>Path 2108</title>
                <path d="M13.2853,6.51001v0h0.22662c-0.18597,0.70795 -0.00385,1.31555 0.53021,1.67188c0.29688,0.19922 0.68359,0.29736 1.0625,0.29736c0.40625,0 0.80273,-0.11328 1.07227,-0.33789c0.19141,-0.15967 0.2168,-0.44336 0.05762,-0.63379c-0.15918,-0.19141 -0.44434,-0.21631 -0.63379,-0.05762c-0.17676,0.14844 -0.7334,0.20117 -1.05859,-0.01611c-0.08789,-0.05908 -0.32227,-0.21484 -0.17969,-0.69043c0.04828,-0.09576 0.09656,-0.18018 0.14325,-0.2334h1.96222c0.24805,0 0.4502,-0.20166 0.4502,-0.4502c0,-0.24854 -0.20215,-0.4502 -0.4502,-0.4502h-3.18262c-0.24854,0 -0.4502,0.20166 -0.4502,0.4502c0,0.24854 0.20159,0.45019 0.45019,0.45019z"
                      fill="#ff0000" fill-opacity="1"></path>
            </g>
            <g>
                <title>Path 2109</title>
                <path d="M14.8761,1.65454c2.13672,0 3.875,1.73828 3.875,3.875c0,2.13672 -1.73828,3.875 -3.875,3.875c-2.13623,0 -3.87451,-1.73828 -3.87451,-3.875c0,-2.13672 1.73821,-3.875 3.87451,-3.875zM14.8761,10.9045c2.96387,0 5.375,-2.41113 5.375,-5.375c0,-2.96387 -2.41113,-5.375 -5.375,-5.375c-2.96338,0 -5.37451,2.41113 -5.37451,5.375c0,2.96387 2.41111,5.375 5.37451,5.375z"
                      fill="#ff0000" fill-opacity="1"></path>
            </g>
            <g>
                <title>Path 2110</title>
                <path d="M24.3419,11.9075l-4.25,4.65088c-0.47949,0.52441 -1.16211,0.8252 -1.87305,0.8252h-5.4209c-1.20728,0 -2.41626,0.13141 -3.59705,0.3808l-2.91827,-2.77222c0.57416,-0.74353 2.11084,-2.50024 3.61591,-2.20624c2.35449,0.46387 3.26807,0.54199 4.04346,0.51367c0.39209,-0.01367 2.21338,-0.00977 3.57178,-0.00488c0.44141,0.00098 0.7998,0.3623 0.7998,0.80469c0,0.44336 -0.36133,0.80469 -0.80469,0.80469h-3.52832c-0.41406,0 -0.75,0.33594 -0.75,0.75c0,0.41406 0.33594,0.75 0.75,0.75h3.52832c1.0954,0 2.01123,-0.77032 2.24396,-1.79651l3.59589,-3.64343c0.26172,-0.26562 0.68066,-0.2749 0.9541,-0.021c0.27435,0.25486 0.29195,0.68746 0.03905,0.96436zM6.4586,22.0798l-4.70801,-4.47266l2.44434,-2.5293l4.66211,4.47852zM25.3243,9.844c-0.87207,-0.80762 -2.20801,-0.77832 -3.04395,0.06641l-2.86206,2.9007c-0.41339,-0.61072 -1.11108,-1.01428 -1.90063,-1.01642c-1.37598,-0.00342 -3.22559,-0.00732 -3.62402,0.00586c-0.55371,0.02197 -1.26074,-0.00537 -3.70605,-0.48633c-2.2478,-0.44482 -4.20026,1.63171 -5.00452,2.64783c-0.6145,-0.54388 -1.55591,-0.5174 -2.12634,0.08362l-2.8369,2.98734c-0.32764,0.33887 -0.31738,0.88184 0.02686,1.21484l5.64551,5.36328l0.00537,0.00488c0.16504,0.15332 0.37549,0.22949 0.58545,0.22949c0.22705,0 0.45361,-0.08887 0.61963,-0.26562l2.84229,-2.99121c0.38837,-0.40985 0.50031,-0.97815 0.3537,-1.48523c0.82727,-0.13104 1.66193,-0.21985 2.49933,-0.21985h5.4209c1.13086,0 2.21777,-0.47852 2.98047,-1.31348l4.25,-4.65088c0.80566,-0.88182 0.74997,-2.26122 -0.12503,-3.07522z"
                      fill="#ff0000" fill-opacity="1"></path>
            </g>
        </g>
    </g>
</svg>