<svg width="0" height="0" class="hidden">
  <symbol fill="inherit" version="1.1" id="shopping-basket" xmlns="http://www.w3.org/2000/svg" xmlns:xlink="http://www.w3.org/1999/xlink" xml:space="preserve" viewBox="0 0 512 512">
    <g>
      <g>
        <path d="M473.043,164.174h-26.541c-0.203-0.226-0.393-0.459-0.61-0.675L301.197,18.803c-6.519-6.52-17.091-6.52-23.611,0
			s-6.52,17.091,0,23.611l121.759,121.759H112.654L234.414,42.414c6.52-6.52,6.52-17.091,0-23.611c-6.519-6.52-17.091-6.52-23.611,0
			L66.107,163.499c-0.217,0.217-0.407,0.45-0.61,0.675H38.957C17.476,164.174,0,181.65,0,203.13v22.261
			c0,20.461,15.855,37.287,35.924,38.84l32,192.003c4.043,24.251,24.82,41.853,49.406,41.853H399.56
			c24.765,0,46.081-18.488,49.584-43.004l27.268-190.88c19.91-1.714,35.587-18.467,35.587-38.812V203.13
			C512,181.65,494.524,164.174,473.043,164.174z M478.609,225.391c0,3.069-2.497,5.565-5.565,5.565c-5.126,0-159.642,0-166.956,0
			c-9.22,0-16.696,7.475-16.696,16.696c0,9.22,7.475,16.696,16.696,16.696h136.576L416.09,450.362
			c-1.168,8.172-8.273,14.334-16.529,14.334H117.33c-8.195,0-15.121-5.867-16.469-13.951L69.796,264.348h136.117
			c9.22,0,16.696-7.475,16.696-16.696c0-9.22-7.475-16.696-16.696-16.696c-7.325,0-161.852,0-166.956,0
			c-3.069,0-5.565-2.497-5.565-5.565V203.13c0-3.069,2.497-5.565,5.565-5.565h434.087c3.069,0,5.565,2.497,5.565,5.565V225.391z"></path>
      </g>
    </g>
    <g>
      <g>
        <path d="M155.826,297.739c-9.22,0-16.696,7.475-16.696,16.696v100.174c0,9.22,7.475,16.696,16.696,16.696
			s16.696-7.475,16.696-16.696V314.434C172.522,305.214,165.047,297.739,155.826,297.739z"></path>
      </g>
    </g>
    <g>
      <g>
        <path d="M256,297.739c-9.22,0-16.696,7.475-16.696,16.696v100.174c0,9.22,7.475,16.696,16.696,16.696
			c9.22,0,16.696-7.475,16.696-16.696V314.434C272.696,305.214,265.22,297.739,256,297.739z"></path>
      </g>
    </g>
    <g>
      <g>
        <path d="M356.174,297.739c-9.22,0-16.696,7.475-16.696,16.696v100.174c0,9.22,7.475,16.696,16.696,16.696
			c9.22,0,16.696-7.475,16.696-16.696V314.434C372.87,305.214,365.394,297.739,356.174,297.739z"></path>
      </g>
    </g>
  </symbol>
  <symbol fill="inherit"  xmlns="http://www.w3.org/2000/svg" xmlns:xlink="http://www.w3.org/1999/xlink" version="1.1" xml:space="preserve" viewBox="0 0 256 256" id="login">
    <defs></defs>
    <g transform="translate(1.4065934065934016 1.4065934065934016) scale(2.81 2.81)">
      <path d="M 79.635 73.696 C 86.104 65.901 90 55.898 90 45 C 90 20.187 69.813 0 45 0 C 20.187 0 0 20.187 0 45 c 0 10.898 3.896 20.901 10.365 28.696 c 0.105 0.161 0.227 0.315 0.383 0.445 c 0.002 0.002 0.005 0.003 0.007 0.005 C 19.015 83.837 31.298 90 45 90 c 13.702 0 25.985 -6.163 34.245 -15.854 c 0.003 -0.002 0.005 -0.003 0.008 -0.005 C 79.408 74.01 79.53 73.857 79.635 73.696 z M 45 4 c 22.607 0 41 18.393 41 41 c 0 9.169 -3.026 17.645 -8.132 24.482 c -6.081 -6.505 -13.876 -10.99 -22.402 -13.023 c 6.497 -3.669 10.901 -10.629 10.901 -18.609 c 0 -11.782 -9.585 -21.367 -21.367 -21.367 c -11.782 0 -21.367 9.585 -21.367 21.367 c 0 7.979 4.404 14.939 10.901 18.608 c -8.526 2.033 -16.321 6.518 -22.402 13.023 C 7.026 62.645 4 54.169 4 45 C 4 22.393 22.393 4 45 4 z M 45 55.217 c -9.576 0 -17.367 -7.791 -17.367 -17.367 S 35.424 20.482 45 20.482 s 17.367 7.791 17.367 17.367 S 54.576 55.217 45 55.217 z M 45 86 c -11.986 0 -22.787 -5.171 -30.29 -13.399 C 22.48 64.079 33.418 59.217 45 59.217 c 11.581 0 22.52 4.863 30.29 13.384 C 67.787 80.829 56.986 86 45 86 z" transform=" matrix(1 0 0 1 0 0) " stroke-linecap="round"></path>
    </g>
  </symbol>
</svg>