<svg width="0" height="0" class="hidden">
  <symbol fill="inherit" version="1.1" id="shopping-basket" xmlns="http://www.w3.org/2000/svg" xmlns:xlink="http://www.w3.org/1999/xlink" xml:space="preserve" viewBox="0 0 512 512">
    <g>
      <g>
        <path d="M473.043,164.174h-26.541c-0.203-0.226-0.393-0.459-0.61-0.675L301.197,18.803c-6.519-6.52-17.091-6.52-23.611,0
			s-6.52,17.091,0,23.611l121.759,121.759H112.654L234.414,42.414c6.52-6.52,6.52-17.091,0-23.611c-6.519-6.52-17.091-6.52-23.611,0
			L66.107,163.499c-0.217,0.217-0.407,0.45-0.61,0.675H38.957C17.476,164.174,0,181.65,0,203.13v22.261
			c0,20.461,15.855,37.287,35.924,38.84l32,192.003c4.043,24.251,24.82,41.853,49.406,41.853H399.56
			c24.765,0,46.081-18.488,49.584-43.004l27.268-190.88c19.91-1.714,35.587-18.467,35.587-38.812V203.13
			C512,181.65,494.524,164.174,473.043,164.174z M478.609,225.391c0,3.069-2.497,5.565-5.565,5.565c-5.126,0-159.642,0-166.956,0
			c-9.22,0-16.696,7.475-16.696,16.696c0,9.22,7.475,16.696,16.696,16.696h136.576L416.09,450.362
			c-1.168,8.172-8.273,14.334-16.529,14.334H117.33c-8.195,0-15.121-5.867-16.469-13.951L69.796,264.348h136.117
			c9.22,0,16.696-7.475,16.696-16.696c0-9.22-7.475-16.696-16.696-16.696c-7.325,0-161.852,0-166.956,0
			c-3.069,0-5.565-2.497-5.565-5.565V203.13c0-3.069,2.497-5.565,5.565-5.565h434.087c3.069,0,5.565,2.497,5.565,5.565V225.391z"></path>
      </g>
    </g>
    <g>
      <g>
        <path d="M155.826,297.739c-9.22,0-16.696,7.475-16.696,16.696v100.174c0,9.22,7.475,16.696,16.696,16.696
			s16.696-7.475,16.696-16.696V314.434C172.522,305.214,165.047,297.739,155.826,297.739z"></path>
      </g>
    </g>
    <g>
      <g>
        <path d="M256,297.739c-9.22,0-16.696,7.475-16.696,16.696v100.174c0,9.22,7.475,16.696,16.696,16.696
			c9.22,0,16.696-7.475,16.696-16.696V314.434C272.696,305.214,265.22,297.739,256,297.739z"></path>
      </g>
    </g>
    <g>
      <g>
        <path d="M356.174,297.739c-9.22,0-16.696,7.475-16.696,16.696v100.174c0,9.22,7.475,16.696,16.696,16.696
			c9.22,0,16.696-7.475,16.696-16.696V314.434C372.87,305.214,365.394,297.739,356.174,297.739z"></path>
      </g>
    </g>
  </symbol>
  <symbol fill="inherit"  xmlns="http://www.w3.org/2000/svg" xmlns:xlink="http://www.w3.org/1999/xlink" version="1.1" xml:space="preserve" viewBox="0 0 256 256" id="login">
    <defs></defs>
    <g transform="translate(1.4065934065934016 1.4065934065934016) scale(2.81 2.81)">
      <path d="M 79.635 73.696 C 86.104 65.901 90 55.898 90 45 C 90 20.187 69.813 0 45 0 C 20.187 0 0 20.187 0 45 c 0 10.898 3.896 20.901 10.365 28.696 c 0.105 0.161 0.227 0.315 0.383 0.445 c 0.002 0.002 0.005 0.003 0.007 0.005 C 19.015 83.837 31.298 90 45 90 c 13.702 0 25.985 -6.163 34.245 -15.854 c 0.003 -0.002 0.005 -0.003 0.008 -0.005 C 79.408 74.01 79.53 73.857 79.635 73.696 z M 45 4 c 22.607 0 41 18.393 41 41 c 0 9.169 -3.026 17.645 -8.132 24.482 c -6.081 -6.505 -13.876 -10.99 -22.402 -13.023 c 6.497 -3.669 10.901 -10.629 10.901 -18.609 c 0 -11.782 -9.585 -21.367 -21.367 -21.367 c -11.782 0 -21.367 9.585 -21.367 21.367 c 0 7.979 4.404 14.939 10.901 18.608 c -8.526 2.033 -16.321 6.518 -22.402 13.023 C 7.026 62.645 4 54.169 4 45 C 4 22.393 22.393 4 45 4 z M 45 55.217 c -9.576 0 -17.367 -7.791 -17.367 -17.367 S 35.424 20.482 45 20.482 s 17.367 7.791 17.367 17.367 S 54.576 55.217 45 55.217 z M 45 86 c -11.986 0 -22.787 -5.171 -30.29 -13.399 C 22.48 64.079 33.418 59.217 45 59.217 c 11.581 0 22.52 4.863 30.29 13.384 C 67.787 80.829 56.986 86 45 86 z" transform=" matrix(1 0 0 1 0 0) " stroke-linecap="round"></path>
    </g>
  </symbol>
  <symbol version="1.1" id="buy" xmlns="http://www.w3.org/2000/svg" xmlns:xlink="http://www.w3.org/1999/xlink" xml:space="preserve" viewBox="0 0 512 512">
    <path d="M0,364.952h419.136L512,146.872H0V364.952z"></path>
    <rect y="146.84" width="30.712" height="218.32"></rect>
    <g>
      <path d="M127.408,207.368c8.68-1.592,17.496-2.392,26.32-2.4c8.6-0.56,17.192,1.288,24.8,5.352
		c7.072,3.344,11.592,10.464,11.6,18.288c-0.432,11.648-8.792,21.488-20.224,23.792v0.448c9.696,2.728,16.24,11.784,15.768,21.848
		c-0.096,9.776-5.28,18.792-13.68,23.792c-11.568,6.208-24.672,8.984-37.768,8c-8.464,0.176-16.92-0.424-25.272-1.784
		L127.408,207.368z M132.768,289.448c2.712,0.312,5.44,0.464,8.168,0.448c11.6,0,22.16-4.608,22.16-15.768
		c0-9.96-8.328-12.928-18.288-12.928h-6.688L132.768,289.448z M141.384,245.584h7.144c11.744,0,19.776-5.056,19.776-13.528
		c0-7.28-5.944-10.4-14.128-10.4c-2.792-0.08-5.592,0.176-8.328,0.744L141.384,245.584z"></path>
      <path d="M234.176,205.728L223.2,263.416c-0.76,3.92-1.112,7.904-1.048,11.896
		c-0.496,7.4,5.096,13.8,12.496,14.296c0.696,0.048,1.392,0.04,2.08-0.024c11.152,0,18.576-7.44,22.152-26.024l11.008-57.832h21.408
		l-10.848,56.944c-5.808,30.328-19.2,44.896-46.4,44.896c-20.664,0-33.304-10.552-33.304-32c0.08-4.696,0.576-9.368,1.488-13.976
		l10.56-55.904L234.176,205.728z"></path>
      <path d="M311.048,305.944l7.728-40.888l-19.48-59.32h22.896l6.4,25.424
		c1.792,8.328,2.832,13.088,3.864,18.144h0.296c2.976-5.352,5.952-11,10.256-18.288l15.024-25.272h25.6l-43.264,58.872l-7.88,41.336
		L311.048,305.944z"></path>
    </g>
    <polygon points="116.48,147.088 139.416,170.032 402.424,170.032 427.288,194.88 492.272,194.88 512,146.84 
	"></polygon>
  </symbol>
 
  <symbol xmlns="http://www.w3.org/2000/svg" viewBox="0 0 50 50" id="icon-tik-tok">
    <path d="M 9 4 C 6.2495759 4 4 6.2495759 4 9 L 4 41 C 4 43.750424 6.2495759 46 9 46 L 41 46 C 43.750424 46 46 43.750424 46 41 L 46 9 C 46 6.2495759 43.750424 4 41 4 L 9 4 z M 9 6 L 41 6 C 42.671576 6 44 7.3284241 44 9 L 44 41 C 44 42.671576 42.671576 44 41 44 L 9 44 C 7.3284241 44 6 42.671576 6 41 L 6 9 C 6 7.3284241 7.3284241 6 9 6 z M 26.042969 10 A 1.0001 1.0001 0 0 0 25.042969 10.998047 C 25.042969 10.998047 25.031984 15.873262 25.021484 20.759766 C 25.016184 23.203017 25.009799 25.64879 25.005859 27.490234 C 25.001922 29.331679 25 30.496833 25 30.59375 C 25 32.409009 23.351421 33.892578 21.472656 33.892578 C 19.608867 33.892578 18.121094 32.402853 18.121094 30.539062 C 18.121094 28.675273 19.608867 27.1875 21.472656 27.1875 C 21.535796 27.1875 21.663054 27.208245 21.880859 27.234375 A 1.0001 1.0001 0 0 0 23 26.240234 L 23 22.039062 A 1.0001 1.0001 0 0 0 22.0625 21.041016 C 21.906673 21.031216 21.710581 21.011719 21.472656 21.011719 C 16.223131 21.011719 11.945313 25.289537 11.945312 30.539062 C 11.945312 35.788589 16.223131 40.066406 21.472656 40.066406 C 26.72204 40.066409 31 35.788588 31 30.539062 L 31 21.490234 C 32.454611 22.653646 34.267517 23.390625 36.269531 23.390625 C 36.542588 23.390625 36.802305 23.374442 37.050781 23.351562 A 1.0001 1.0001 0 0 0 37.958984 22.355469 L 37.958984 17.685547 A 1.0001 1.0001 0 0 0 37.03125 16.6875 C 33.886609 16.461891 31.379838 14.012216 31.052734 10.896484 A 1.0001 1.0001 0 0 0 30.058594 10 L 26.042969 10 z M 27.041016 12 L 29.322266 12 C 30.049047 15.2987 32.626734 17.814404 35.958984 18.445312 L 35.958984 21.310547 C 33.820114 21.201935 31.941489 20.134948 30.835938 18.453125 A 1.0001 1.0001 0 0 0 29 19.003906 L 29 30.539062 C 29 34.707538 25.641273 38.066406 21.472656 38.066406 C 17.304181 38.066406 13.945312 34.707538 13.945312 30.539062 C 13.945312 26.538539 17.066083 23.363182 21 23.107422 L 21 25.283203 C 18.286416 25.535721 16.121094 27.762246 16.121094 30.539062 C 16.121094 33.483274 18.528445 35.892578 21.472656 35.892578 C 24.401892 35.892578 27 33.586491 27 30.59375 C 27 30.64267 27.001859 29.335571 27.005859 27.494141 C 27.009759 25.65271 27.016224 23.20692 27.021484 20.763672 C 27.030884 16.376775 27.039186 12.849206 27.041016 12 z"></path>
  </symbol>


  <symbol xmlns="http://www.w3.org/2000/svg" viewBox="0 0 50 50" id="icon-facebook">
    <path d="M 25 3 C 12.861562 3 3 12.861562 3 25 C 3 36.019135 11.127533 45.138355 21.712891 46.728516 L 22.861328 46.902344 L 22.861328 29.566406 L 17.664062 29.566406 L 17.664062 26.046875 L 22.861328 26.046875 L 22.861328 21.373047 C 22.861328 18.494965 23.551973 16.599417 24.695312 15.410156 C 25.838652 14.220896 27.528004 13.621094 29.878906 13.621094 C 31.758714 13.621094 32.490022 13.734993 33.185547 13.820312 L 33.185547 16.701172 L 30.738281 16.701172 C 29.349697 16.701172 28.210449 17.475903 27.619141 18.507812 C 27.027832 19.539724 26.84375 20.771816 26.84375 22.027344 L 26.84375 26.044922 L 32.966797 26.044922 L 32.421875 29.564453 L 26.84375 29.564453 L 26.84375 46.929688 L 27.978516 46.775391 C 38.71434 45.319366 47 36.126845 47 25 C 47 12.861562 37.138438 3 25 3 z M 25 5 C 36.057562 5 45 13.942438 45 25 C 45 34.729791 38.035799 42.731796 28.84375 44.533203 L 28.84375 31.564453 L 34.136719 31.564453 L 35.298828 24.044922 L 28.84375 24.044922 L 28.84375 22.027344 C 28.84375 20.989871 29.033574 20.060293 29.353516 19.501953 C 29.673457 18.943614 29.981865 18.701172 30.738281 18.701172 L 35.185547 18.701172 L 35.185547 12.009766 L 34.318359 11.892578 C 33.718567 11.811418 32.349197 11.621094 29.878906 11.621094 C 27.175808 11.621094 24.855567 12.357448 23.253906 14.023438 C 21.652246 15.689426 20.861328 18.170128 20.861328 21.373047 L 20.861328 24.046875 L 15.664062 24.046875 L 15.664062 31.566406 L 20.861328 31.566406 L 20.861328 44.470703 C 11.816995 42.554813 5 34.624447 5 25 C 5 13.942438 13.942438 5 25 5 z"></path>
  </symbol>

  <symbol xmlns="http://www.w3.org/2000/svg" viewBox="0 0 50 50" id="icon-instagram">
    <path d="M 16 3 C 8.8324839 3 3 8.8324839 3 16 L 3 34 C 3 41.167516 8.8324839 47 16 47 L 34 47 C 41.167516 47 47 41.167516 47 34 L 47 16 C 47 8.8324839 41.167516 3 34 3 L 16 3 z M 16 5 L 34 5 C 40.086484 5 45 9.9135161 45 16 L 45 34 C 45 40.086484 40.086484 45 34 45 L 16 45 C 9.9135161 45 5 40.086484 5 34 L 5 16 C 5 9.9135161 9.9135161 5 16 5 z M 37 11 A 2 2 0 0 0 35 13 A 2 2 0 0 0 37 15 A 2 2 0 0 0 39 13 A 2 2 0 0 0 37 11 z M 25 14 C 18.936712 14 14 18.936712 14 25 C 14 31.063288 18.936712 36 25 36 C 31.063288 36 36 31.063288 36 25 C 36 18.936712 31.063288 14 25 14 z M 25 16 C 29.982407 16 34 20.017593 34 25 C 34 29.982407 29.982407 34 25 34 C 20.017593 34 16 29.982407 16 25 C 16 20.017593 20.017593 16 25 16 z"></path>
  </symbol>

  <symbol  version="1.1" id="location" xmlns="http://www.w3.org/2000/svg" xmlns:xlink="http://www.w3.org/1999/xlink" xml:space="preserve" viewBox="0 0 395.71 395.71">
    <g>
      <path d="M197.849,0C122.131,0,60.531,61.609,60.531,137.329c0,72.887,124.591,243.177,129.896,250.388l4.951,6.738
		c0.579,0.792,1.501,1.255,2.471,1.255c0.985,0,1.901-0.463,2.486-1.255l4.948-6.738c5.308-7.211,129.896-177.501,129.896-250.388
		C335.179,61.609,273.569,0,197.849,0z M197.849,88.138c27.13,0,49.191,22.062,49.191,49.191c0,27.115-22.062,49.191-49.191,49.191
		c-27.114,0-49.191-22.076-49.191-49.191C148.658,110.2,170.734,88.138,197.849,88.138z"></path>
    </g>
  </symbol>

  <symbol version="1.1" id="email" xmlns="http://www.w3.org/2000/svg" xmlns:xlink="http://www.w3.org/1999/xlink" xml:space="preserve" viewBox="0 0 512 512">
    <g>
      <path d="M510.746,110.361c-2.128-10.754-6.926-20.918-13.926-29.463c-1.422-1.794-2.909-3.39-4.535-5.009
		c-12.454-12.52-29.778-19.701-47.531-19.701H67.244c-17.951,0-34.834,7-47.539,19.708c-1.608,1.604-3.099,3.216-4.575,5.067
		c-6.97,8.509-11.747,18.659-13.824,29.428C0.438,114.62,0,119.002,0,123.435v265.137c0,9.224,1.874,18.206,5.589,26.745
		c3.215,7.583,8.093,14.772,14.112,20.788c1.516,1.509,3.022,2.901,4.63,4.258c12.034,9.966,27.272,15.45,42.913,15.45h377.51
		c15.742,0,30.965-5.505,42.967-15.56c1.604-1.298,3.091-2.661,4.578-4.148c5.818-5.812,10.442-12.49,13.766-19.854l0.438-1.05
		c3.646-8.377,5.497-17.33,5.497-26.628V123.435C512,119.06,511.578,114.649,510.746,110.361z M34.823,99.104
		c0.951-1.392,2.165-2.821,3.714-4.382c7.689-7.685,17.886-11.914,28.706-11.914h377.51c10.915,0,21.115,4.236,28.719,11.929
		c1.313,1.327,2.567,2.8,3.661,4.272l2.887,3.88l-201.5,175.616c-6.212,5.446-14.21,8.443-22.523,8.443
		c-8.231,0-16.222-2.99-22.508-8.436L32.19,102.939L34.823,99.104z M26.755,390.913c-0.109-0.722-0.134-1.524-0.134-2.341V128.925
		l156.37,136.411L28.199,400.297L26.755,390.913z M464.899,423.84c-6.052,3.492-13.022,5.344-20.145,5.344H67.244
		c-7.127,0-14.094-1.852-20.142-5.344l-6.328-3.668l159.936-139.379l17.528,15.246c10.514,9.128,23.922,14.16,37.761,14.16
		c13.89,0,27.32-5.032,37.827-14.16l17.521-15.253L471.228,420.18L464.899,423.84z M485.372,388.572
		c0,0.803-0.015,1.597-0.116,2.304l-1.386,9.472L329.012,265.409l156.36-136.418V388.572z"></path>
    </g>
  </symbol>

  <symbol  version="1.1" id="phone" xmlns="http://www.w3.org/2000/svg" xmlns:xlink="http://www.w3.org/1999/xlink" xml:space="preserve" viewBox="0 0 473.806 473.806">
    <g>
      <g>
        <path d="M374.456,293.506c-9.7-10.1-21.4-15.5-33.8-15.5c-12.3,0-24.1,5.3-34.2,15.4l-31.6,31.5c-2.6-1.4-5.2-2.7-7.7-4
			c-3.6-1.8-7-3.5-9.9-5.3c-29.6-18.8-56.5-43.3-82.3-75c-12.5-15.8-20.9-29.1-27-42.6c8.2-7.5,15.8-15.3,23.2-22.8
			c2.8-2.8,5.6-5.7,8.4-8.5c21-21,21-48.2,0-69.2l-27.3-27.3c-3.1-3.1-6.3-6.3-9.3-9.5c-6-6.2-12.3-12.6-18.8-18.6
			c-9.7-9.6-21.3-14.7-33.5-14.7s-24,5.1-34,14.7c-0.1,0.1-0.1,0.1-0.2,0.2l-34,34.3c-12.8,12.8-20.1,28.4-21.7,46.5
			c-2.4,29.2,6.2,56.4,12.8,74.2c16.2,43.7,40.4,84.2,76.5,127.6c43.8,52.3,96.5,93.6,156.7,122.7c23,10.9,53.7,23.8,88,26
			c2.1,0.1,4.3,0.2,6.3,0.2c23.1,0,42.5-8.3,57.7-24.8c0.1-0.2,0.3-0.3,0.4-0.5c5.2-6.3,11.2-12,17.5-18.1c4.3-4.1,8.7-8.4,13-12.9
			c9.9-10.3,15.1-22.3,15.1-34.6c0-12.4-5.3-24.3-15.4-34.3L374.456,293.506z M410.256,398.806
			C410.156,398.806,410.156,398.906,410.256,398.806c-3.9,4.2-7.9,8-12.2,12.2c-6.5,6.2-13.1,12.7-19.3,20
			c-10.1,10.8-22,15.9-37.6,15.9c-1.5,0-3.1,0-4.6-0.1c-29.7-1.9-57.3-13.5-78-23.4c-56.6-27.4-106.3-66.3-147.6-115.6
			c-34.1-41.1-56.9-79.1-72-119.9c-9.3-24.9-12.7-44.3-11.2-62.6c1-11.7,5.5-21.4,13.8-29.7l34.1-34.1c4.9-4.6,10.1-7.1,15.2-7.1
			c6.3,0,11.4,3.8,14.6,7c0.1,0.1,0.2,0.2,0.3,0.3c6.1,5.7,11.9,11.6,18,17.9c3.1,3.2,6.3,6.4,9.5,9.7l27.3,27.3
			c10.6,10.6,10.6,20.4,0,31c-2.9,2.9-5.7,5.8-8.6,8.6c-8.4,8.6-16.4,16.6-25.1,24.4c-0.2,0.2-0.4,0.3-0.5,0.5
			c-8.6,8.6-7,17-5.2,22.7c0.1,0.3,0.2,0.6,0.3,0.9c7.1,17.2,17.1,33.4,32.3,52.7l0.1,0.1c27.6,34,56.7,60.5,88.8,80.8
			c4.1,2.6,8.3,4.7,12.3,6.7c3.6,1.8,7,3.5,9.9,5.3c0.4,0.2,0.8,0.5,1.2,0.7c3.4,1.7,6.6,2.5,9.9,2.5c8.3,0,13.5-5.2,15.2-6.9
			l34.2-34.2c3.4-3.4,8.8-7.5,15.1-7.5c6.2,0,11.3,3.9,14.4,7.3c0.1,0.1,0.1,0.1,0.2,0.2l55.1,55.1
			C420.456,377.706,420.456,388.206,410.256,398.806z"></path>
        <path d="M256.056,112.706c26.2,4.4,50,16.8,69,35.8s31.3,42.8,35.8,69c1.1,6.6,6.8,11.2,13.3,11.2c0.8,0,1.5-0.1,2.3-0.2
			c7.4-1.2,12.3-8.2,11.1-15.6c-5.4-31.7-20.4-60.6-43.3-83.5s-51.8-37.9-83.5-43.3c-7.4-1.2-14.3,3.7-15.6,11
			S248.656,111.506,256.056,112.706z"></path>
        <path d="M473.256,209.006c-8.9-52.2-33.5-99.7-71.3-137.5s-85.3-62.4-137.5-71.3c-7.3-1.3-14.2,3.7-15.5,11
			c-1.2,7.4,3.7,14.3,11.1,15.6c46.6,7.9,89.1,30,122.9,63.7c33.8,33.8,55.8,76.3,63.7,122.9c1.1,6.6,6.8,11.2,13.3,11.2
			c0.8,0,1.5-0.1,2.3-0.2C469.556,223.306,474.556,216.306,473.256,209.006z"></path>
      </g>
    </g>
  </symbol>

  <symbol  id="tiktok2" xmlns="http://www.w3.org/2000/svg" viewBox="0 0 512 512">
    <path d="M412.19,118.66a109.27,109.27,0,0,1-9.45-5.5,132.87,132.87,0,0,1-24.27-20.62c-18.1-20.71-24.86-41.72-27.35-56.43h.1C349.14,23.9,350,16,350.13,16H267.69V334.78c0,4.28,0,8.51-.18,12.69,0,.52-.05,1-.08,1.56,0,.23,0,.47-.05.71,0,.06,0,.12,0,.18a70,70,0,0,1-35.22,55.56,68.8,68.8,0,0,1-34.11,9c-38.41,0-69.54-31.32-69.54-70s31.13-70,69.54-70a68.9,68.9,0,0,1,21.41,3.39l.1-83.94a153.14,153.14,0,0,0-118,34.52,161.79,161.79,0,0,0-35.3,43.53c-3.48,6-16.61,30.11-18.2,69.24-1,22.21,5.67,45.22,8.85,54.73v.2c2,5.6,9.75,24.71,22.38,40.82A167.53,167.53,0,0,0,115,470.66v-.2l.2.2C155.11,497.78,199.36,496,199.36,496c7.66-.31,33.32,0,62.46-13.81,32.32-15.31,50.72-38.12,50.72-38.12a158.46,158.46,0,0,0,27.64-45.93c7.46-19.61,9.95-43.13,9.95-52.53V176.49c1,.6,14.32,9.41,14.32,9.41s19.19,12.3,49.13,20.31c21.48,5.7,50.42,6.9,50.42,6.9V131.27C453.86,132.37,433.27,129.17,412.19,118.66Z"></path>
  </symbol>

  
  

  
  <symbol  xmlns="http://www.w3.org/2000/svg" viewBox="0 0 24 24" id="plus">
    <path d="M6 12H18M12 6V18"  stroke-width="2" stroke-linecap="round" stroke-linejoin="round"></path>
  </symbol>




  
  
  
  <symbol  xmlns="http://www.w3.org/2000/svg" viewBox="0 0 24 24" id="minus">
    <path d="M6 12L18 12"  stroke-width="2" stroke-linecap="round" stroke-linejoin="round"></path>
  </symbol>


   
   
  
  <symbol version="1.1" id="cancel" xmlns="http://www.w3.org/2000/svg" xmlns:xlink="http://www.w3.org/1999/xlink" xml:space="preserve" viewBox="0 0 512.001 512.001">
    <path d="M495.441,72.695L439.306,16.56c-8.498-8.498-22.278-8.498-30.777,0L271.389,153.7
	c-8.498,8.498-22.278,8.498-30.777,0L103.472,16.56c-8.498-8.498-22.278-8.498-30.777,0L16.56,72.695
	c-8.498,8.498-8.498,22.278,0,30.777l137.14,137.14c8.498,8.498,8.498,22.278,0,30.777L16.56,408.529
	c-8.498,8.498-8.498,22.278,0,30.777l56.136,56.136c8.498,8.498,22.278,8.498,30.777,0l137.14-137.14
	c8.498-8.498,22.278-8.498,30.777,0l137.14,137.14c8.498,8.498,22.278,8.498,30.777,0l56.136-56.136
	c8.498-8.498,8.498-22.278,0-30.777l-137.14-137.139c-8.498-8.498-8.498-22.278,0-30.777l137.14-137.14
	C503.941,94.974,503.941,81.194,495.441,72.695z"></path>
    <g>
      <path d="M88.084,511.999c-8.184,0-16.369-3.115-22.6-9.346L9.347,446.518
		c-12.462-12.462-12.462-32.739,0-45.201l137.14-137.14c4.508-4.508,4.508-11.843,0-16.351L9.347,110.685
		c-12.462-12.463-12.462-32.74,0-45.201L65.482,9.348c12.464-12.462,32.74-12.462,45.201,0l137.141,137.14
		c4.508,4.508,11.843,4.508,16.351,0l137.14-137.14c12.461-12.461,32.738-12.462,45.2,0l56.138,56.136
		c12.462,12.462,12.462,32.739,0,45.201l-137.14,137.14c-4.508,4.508-4.508,11.843,0,16.351l137.14,137.14
		c12.462,12.463,12.462,32.74,0,45.201l-56.136,56.136c-12.464,12.462-32.74,12.462-45.201,0l-137.141-137.14
		c-4.508-4.508-11.843-4.508-16.351,0l-137.14,137.14C104.454,508.884,96.268,511.999,88.084,511.999z M88.084,20.391
		c-2.961,0-5.922,1.127-8.177,3.381L23.772,79.908c-4.508,4.508-4.508,11.844,0,16.352l137.14,137.139
		c12.462,12.462,12.462,32.739,0,45.201l-137.14,137.14c-4.508,4.508-4.508,11.844,0,16.351l56.136,56.137
		c4.508,4.508,11.843,4.507,16.351,0l137.14-137.14c12.463-12.463,32.739-12.463,45.201,0l137.14,137.139
		c4.508,4.509,11.842,4.508,16.352,0l56.135-56.136c4.508-4.508,4.508-11.844,0-16.352L351.089,278.602
		c-12.462-12.462-12.462-32.739,0-45.201l137.14-137.14c4.508-4.508,4.508-11.844,0-16.351l0,0l-56.136-56.136
		c-4.509-4.507-11.844-4.507-16.351,0l-137.14,137.139c-12.463,12.463-32.739,12.463-45.201,0L96.259,23.772
		C94.005,21.518,91.045,20.391,88.084,20.391z"></path>
      <path d="M88.935,473.447c-2.611,0-5.22-0.996-7.212-2.988c-3.983-3.983-3.983-10.442,0-14.426l82.476-82.475
		c3.984-3.983,10.441-3.983,14.426,0c3.983,3.983,3.983,10.442,0,14.426L96.148,470.46
		C94.155,472.452,91.545,473.447,88.935,473.447z"></path>
      <path d="M195.201,367.181c-2.611,0-5.22-0.996-7.212-2.987c-3.983-3.983-3.983-10.442,0-14.426l6.873-6.873
		c3.984-3.983,10.44-3.983,14.426,0c3.983,3.983,3.983,10.442,0,14.426l-6.873,6.873
		C200.421,366.184,197.812,367.181,195.201,367.181z"></path>
    </g>
  </symbol>

 






  


</svg>